<?xml version="1.0" standalone="no"?>
<!DOCTYPE svg PUBLIC "-//W3C//DTD SVG 20010904//EN"
 "http://www.w3.org/TR/2001/REC-SVG-20010904/DTD/svg10.dtd">
<svg version="1.0" xmlns="http://www.w3.org/2000/svg"
 width="512.000000pt" height="512.000000pt" viewBox="0 0 512.000000 512.000000"
 preserveAspectRatio="xMidYMid meet">

<g transform="translate(0.000000,512.000000) scale(0.100000,-0.100000)"
fill="#000000" stroke="none">
<path d="M2753 4419 c-33 -12 -43 -40 -43 -123 0 -69 2 -76 27 -96 32 -25 69
-20 96 12 19 23 24 128 8 171 -11 29 -57 48 -88 36z"/>
<path d="M2286 4249 c-39 -31 -34 -65 20 -135 53 -70 83 -85 122 -63 20 11 28
24 30 51 3 31 -4 47 -39 93 -61 80 -86 91 -133 54z"/>
<path d="M3159 4219 c-60 -65 -76 -101 -61 -135 16 -34 55 -50 87 -36 30 14
115 127 115 154 0 26 -44 68 -71 68 -15 0 -40 -19 -70 -51z"/>
<path d="M2663 3966 c-156 -51 -260 -190 -271 -361 l-5 -85 -1027 0 c-1134 0
-1095 2 -1157 -62 -67 -69 -63 2 -63 -1173 0 -939 2 -1070 15 -1103 20 -47 50
-79 100 -105 37 -20 60 -22 269 -27 l229 -5 12 -40 c91 -307 471 -411 702
-192 60 56 93 109 118 185 l17 52 958 0 958 0 17 -52 c24 -77 56 -127 119
-186 226 -214 596 -117 698 183 l17 50 228 5 c210 5 231 7 269 27 51 27 90 72
104 121 8 25 10 175 8 457 l-3 420 -29 63 c-20 42 -47 80 -86 116 -58 53 -83
66 -281 143 l-97 38 -412 470 c-227 259 -433 491 -458 517 -74 76 -121 92
-293 96 l-146 4 -11 95 c-13 116 -44 184 -113 253 -73 73 -144 103 -254 107
-57 2 -105 -2 -132 -11z m224 -147 c85 -41 143 -141 143 -246 l0 -43 -250 0
-250 0 0 58 c0 99 64 199 150 236 53 23 155 20 207 -5z m585 -462 c21 -12 225
-236 476 -522 241 -275 446 -506 454 -513 9 -7 84 -39 167 -71 83 -33 168 -71
187 -86 20 -15 47 -50 60 -79 l24 -51 0 -402 0 -402 -26 -20 c-25 -20 -39 -21
-236 -21 -158 0 -209 3 -212 12 -46 164 -131 266 -266 320 -44 18 -75 23 -160
23 -98 0 -110 -2 -172 -32 -116 -55 -202 -156 -239 -280 l-12 -43 -957 0 -957
0 -12 42 c-37 125 -123 226 -239 281 -62 30 -74 32 -172 32 -85 0 -116 -5
-160 -23 -135 -54 -220 -156 -266 -319 -3 -10 -54 -13 -212 -13 -197 0 -211 1
-236 21 l-26 20 0 1055 c0 1041 0 1054 20 1074 20 20 33 20 1578 20 l1557 0
37 -23z m-2177 -1971 c106 -50 167 -147 168 -265 0 -164 -123 -286 -288 -285
-309 2 -397 426 -115 553 65 30 169 28 235 -3z m2765 3 c184 -83 230 -329 88
-471 -86 -86 -221 -108 -330 -55 -105 52 -162 143 -161 262 0 116 61 212 167
261 67 31 171 33 236 3z"/>
<path d="M2954 3195 l-25 -25 3 -416 3 -416 24 -19 c22 -18 46 -19 546 -19
717 0 691 -34 308 407 -147 170 -298 344 -336 388 -118 137 -89 125 -308 125
-189 0 -190 0 -215 -25z m602 -402 c137 -158 262 -302 278 -320 l28 -33 -396
0 -396 0 0 320 0 320 118 0 118 0 250 -287z"/>
<path d="M1254 3059 c-16 -18 -19 -40 -22 -150 l-4 -129 -124 0 c-119 0 -126
-1 -149 -25 -25 -24 -25 -26 -25 -208 0 -246 -7 -237 170 -237 l128 0 4 -129
c4 -182 -10 -171 238 -171 178 0 198 2 213 18 14 15 17 42 17 150 l0 132 129
0 c186 0 176 -14 176 235 0 249 10 235 -176 235 l-129 0 0 134 c0 177 15 166
-236 166 -181 0 -192 -1 -210 -21z m316 -253 c0 -172 -6 -166 172 -166 l128 0
0 -95 0 -95 -120 0 c-127 0 -167 -10 -175 -44 -3 -12 -6 -75 -8 -141 l-2 -120
-95 0 -95 0 -3 132 c-3 129 -3 132 -29 152 -23 19 -40 21 -149 21 l-124 0 0
95 0 95 130 0 c117 0 132 2 150 20 18 18 20 33 20 150 l0 130 100 0 100 0 0
-134z"/>
<path d="M2025 3908 c-27 -15 -35 -28 -35 -59 0 -42 22 -60 90 -74 91 -20 126
-19 150 5 45 45 14 101 -66 118 -95 20 -119 22 -139 10z"/>
<path d="M3416 3904 c-80 -16 -106 -35 -106 -79 0 -62 38 -75 157 -53 97 18
131 71 78 123 -27 28 -33 28 -129 9z"/>
</g>
</svg>
