<?xml version="1.0" standalone="no"?>
<!DOCTYPE svg PUBLIC "-//W3C//DTD SVG 20010904//EN"
 "http://www.w3.org/TR/2001/REC-SVG-20010904/DTD/svg10.dtd">
<svg version="1.0" xmlns="http://www.w3.org/2000/svg"
 width="512.000000pt" height="512.000000pt" viewBox="0 0 512.000000 512.000000"
 preserveAspectRatio="xMidYMid meet">
<metadata>
Created by potrace 1.16, written by Peter Selinger 2001-2019
</metadata>
<g transform="translate(0.000000,512.000000) scale(0.100000,-0.100000)"
fill="#000000" stroke="none">
<path d="M2515 4979 c-144 -22 -266 -78 -355 -163 -41 -40 -51 -45 -123 -55
-257 -37 -437 -185 -512 -423 -33 -104 -40 -186 -25 -308 15 -131 49 -251 105
-365 l44 -90 -34 -35 c-56 -60 -69 -95 -73 -207 -3 -78 0 -113 13 -154 22 -67
91 -142 150 -165 36 -13 45 -22 50 -48 21 -104 93 -270 157 -364 18 -26 61
-75 96 -110 l64 -63 -7 -55 c-8 -66 -40 -186 -60 -224 -12 -24 -36 -33 -242
-94 -125 -38 -238 -74 -250 -82 -12 -7 -24 -26 -28 -42 -6 -29 -7 -29 -98 -35
-388 -27 -719 -311 -819 -703 -22 -86 -23 -104 -23 -556 0 -435 1 -468 18
-485 17 -17 110 -18 1997 -18 1887 0 1980 1 1997 18 17 17 18 50 18 490 l-1
472 -26 96 c-105 386 -434 661 -820 686 -84 5 -98 9 -98 23 0 45 -31 60 -275
133 l-240 73 -22 59 c-12 33 -29 101 -38 151 l-17 91 57 54 c69 65 130 149
178 244 35 72 87 222 87 254 0 13 15 24 47 36 25 10 65 37 88 60 58 57 79 123
80 246 0 87 -3 101 -30 154 -27 52 -69 95 -107 107 -6 2 5 51 30 128 57 178
76 301 69 463 -6 150 -21 218 -76 332 -83 174 -231 304 -452 395 -164 68 -361
100 -494 79z m310 -173 c113 -33 274 -112 342 -168 107 -90 178 -203 209 -334
23 -98 15 -305 -17 -432 l-23 -93 -15 38 c-47 121 -150 235 -259 286 -66 31
-71 32 -257 38 -104 4 -201 10 -215 14 -161 45 -255 89 -368 174 -92 70 -118
75 -178 35 -151 -101 -273 -293 -314 -493 -9 -46 -19 -80 -22 -75 -18 30 -49
158 -59 248 -16 134 -3 216 52 326 78 156 235 249 420 250 56 0 57 1 123 65
146 145 348 187 581 121z m-653 -630 c186 -129 376 -185 632 -187 81 0 154 -5
173 -12 131 -49 224 -196 254 -400 15 -100 30 -119 100 -127 65 -6 90 -36 97
-112 8 -101 -34 -178 -106 -194 -65 -14 -82 -26 -90 -63 -60 -259 -105 -353
-227 -476 -117 -118 -267 -178 -445 -179 -198 -1 -376 81 -500 230 -59 70
-127 214 -151 319 -12 50 -24 101 -28 115 -7 26 -29 39 -101 61 -66 21 -90 61
-90 156 0 79 17 128 47 136 10 3 34 8 54 11 59 10 64 22 66 180 2 167 21 257
83 383 36 72 140 203 162 203 4 0 35 -20 70 -44z m169 -1871 c163 -43 322 -38
476 13 l83 28 6 -35 c11 -70 45 -183 66 -224 l21 -42 -34 -227 -33 -227 -76
-8 c-94 -10 -548 -7 -614 4 l-50 8 -33 219 -33 220 29 70 c16 39 38 110 47
158 l18 87 35 -15 c19 -8 60 -21 92 -29z m-356 -377 c15 -86 205 -1352 202
-1354 -1 -1 -106 166 -234 371 l-231 374 59 67 c47 53 59 74 59 101 0 22 -29
91 -86 204 -47 94 -83 174 -79 177 6 6 273 90 292 91 7 1 15 -14 18 -31z
m1309 -13 c82 -25 151 -45 153 -45 2 0 -37 -81 -87 -180 -49 -99 -90 -192 -90
-208 0 -20 17 -47 60 -96 39 -43 58 -72 53 -80 -77 -128 -457 -735 -459 -734
-1 2 45 311 102 688 57 377 104 688 104 693 0 11 4 10 164 -38z m-1676 -291
l63 -125 -60 -65 c-67 -74 -78 -101 -56 -144 8 -16 149 -245 311 -507 163
-263 299 -484 301 -490 4 -10 -148 -13 -741 -13 l-746 0 0 379 c0 409 5 465
54 595 52 138 151 266 270 350 109 77 106 79 67 -37 -29 -87 -35 -119 -39
-225 l-5 -122 -32 -20 c-51 -31 -114 -106 -142 -166 -56 -123 -54 -251 5 -378
36 -77 63 -106 99 -106 37 0 113 29 141 53 61 55 -15 156 -88 117 -17 -9 -21
-4 -35 42 -24 82 -20 136 18 209 86 170 272 196 407 58 35 -36 80 -128 80
-163 0 -8 -11 -17 -25 -20 -32 -8 -57 -47 -53 -82 4 -38 43 -62 113 -70 51 -5
64 -3 85 14 24 19 25 26 25 119 0 78 -5 110 -23 158 -61 160 -200 266 -369
282 l-63 6 6 56 c16 166 62 288 140 371 l47 50 91 0 91 0 63 -126z m2115 94
c58 -77 106 -205 125 -333 23 -153 24 -143 -11 -155 -46 -15 -103 -64 -134
-117 -35 -61 -44 -172 -18 -240 55 -143 231 -216 372 -153 215 95 220 404 8
505 -54 25 -55 26 -55 70 0 86 -54 315 -92 388 -12 24 3 22 65 -9 176 -89 316
-242 383 -420 49 -130 54 -186 54 -595 l0 -379 -750 0 c-412 0 -750 2 -750 4
0 2 140 230 311 507 171 277 313 509 316 516 10 26 -8 61 -66 127 l-60 68 62
124 62 124 77 0 c75 0 78 -1 101 -32z m-1273 -293 c69 -3 195 -1 280 4 85 6
156 8 158 7 1 -2 -36 -258 -83 -569 -47 -311 -85 -570 -85 -576 0 -8 -56 -11
-173 -11 l-172 0 -84 558 c-46 306 -86 568 -88 580 -6 24 -5 24 58 18 35 -3
120 -8 189 -11z m1581 -364 c33 -32 39 -45 39 -80 0 -80 -50 -134 -125 -134
-81 0 -131 59 -126 152 0 13 18 41 40 62 34 34 44 39 86 39 42 0 52 -5 86 -39z"/>
</g>
</svg>
