<?xml version="1.0" standalone="no"?>
<!DOCTYPE svg PUBLIC "-//W3C//DTD SVG 20010904//EN"
 "http://www.w3.org/TR/2001/REC-SVG-20010904/DTD/svg10.dtd">
<svg version="1.0" xmlns="http://www.w3.org/2000/svg"
 width="74.000000pt" height="116.000000pt" viewBox="0 0 74.000000 116.000000"
 preserveAspectRatio="xMidYMid meet">
<metadata>
Created by potrace 1.16, written by Peter Selinger 2001-2019
</metadata>
<g transform="translate(0.000000,116.000000) scale(0.100000,-0.100000)"
fill="#000000" stroke="none">
<path d="M289 1131 c-42 -42 -42 -110 0 -152 23 -23 38 -29 71 -29 52 0 76 13
95 50 19 37 19 73 0 110 -19 37 -43 50 -95 50 -33 0 -48 -6 -71 -29z"/>
<path d="M172 905 c-67 -73 -112 -166 -119 -245 -3 -35 2 -125 12 -208 l18
-147 -42 -108 c-42 -109 -50 -164 -29 -185 17 -17 53 -15 70 6 18 20 62 135
95 242 l22 75 0 -152 c1 -124 4 -154 17 -167 21 -22 50 -20 75 5 20 20 21 30
17 177 l-3 157 -39 78 c-34 70 -38 84 -33 130 4 29 14 79 25 111 l18 60 21
-36 c12 -20 42 -48 67 -63 25 -15 46 -30 46 -35 0 -4 -18 -125 -40 -269 -47
-304 -48 -331 -21 -331 21 0 26 11 36 83 l6 47 144 0 c161 0 148 7 160 -82 5
-39 10 -48 26 -48 16 0 19 7 19 43 0 58 -68 505 -82 540 -11 28 -53 57 -82 57
-23 0 -148 68 -178 97 -17 16 -38 57 -53 103 -46 139 -91 155 -173 65z m473
-521 c14 -89 25 -171 25 -183 0 -20 -4 -21 -130 -21 -96 0 -132 3 -135 13 -3
7 7 93 22 192 l28 180 46 -3 c33 -3 49 1 59 13 12 15 15 14 36 -7 19 -19 27
-50 49 -184z"/>
</g>
</svg>
