<?xml version="1.0" standalone="no"?>
<!DOCTYPE svg PUBLIC "-//W3C//DTD SVG 20010904//EN"
 "http://www.w3.org/TR/2001/REC-SVG-20010904/DTD/svg10.dtd">
<svg version="1.0" xmlns="http://www.w3.org/2000/svg"
 width="71.000000pt" height="98.000000pt" viewBox="0 0 71.000000 98.000000"
 preserveAspectRatio="xMidYMid meet">
<metadata>
Created by potrace 1.16, written by Peter Selinger 2001-2019
</metadata>
<g transform="translate(0.000000,98.000000) scale(0.100000,-0.100000)"
fill="#000000" stroke="none">
<path d="M340 971 l-45 -6 -1 -42 c-1 -47 -21 -80 -38 -63 -14 14 -109 13
-124 -2 -7 -7 -12 -21 -12 -32 0 -14 -13 -28 -37 -41 -40 -21 -49 -40 -38 -82
5 -22 10 -25 41 -21 31 4 34 2 32 -16 -4 -22 -5 -22 -49 -11 -38 9 -63 -18
-56 -62 3 -18 1 -35 -4 -38 -5 -4 -9 -20 -9 -37 0 -21 6 -31 19 -35 14 -4 20
-18 25 -66 4 -40 16 -79 37 -115 27 -48 29 -60 24 -107 -10 -73 -1 -92 46
-106 41 -13 89 -1 89 21 0 6 18 1 41 -10 60 -31 274 -100 309 -100 70 0 120
115 120 274 0 110 -19 183 -61 230 -29 33 -29 35 -9 41 30 9 25 69 -6 73 -16
2 -20 9 -17 26 3 13 -2 28 -11 35 -20 17 -20 31 -1 31 24 0 40 45 27 75 -10
22 -18 25 -60 25 -42 0 -50 3 -65 29 -10 18 -15 40 -12 57 6 33 1 43 -37 67
-28 17 -40 18 -118 8z m106 -134 c16 -14 24 -29 20 -35 -11 -17 -36 -15 -36 4
0 21 -23 13 -34 -12 -5 -12 -19 -25 -30 -30 -12 -5 -25 -23 -31 -40 -27 -81
-62 -89 -72 -17 -14 109 107 195 183 130z m-226 -91 c0 -81 -1 -84 -25 -88
l-25 -5 0 88 c0 88 0 89 25 89 25 0 25 -1 25 -84z m310 -10 c-73 -24 -99 -52
-107 -114 -3 -23 -8 -42 -12 -42 -3 0 -21 9 -39 20 l-32 20 20 37 c11 21 20
44 20 52 0 11 5 9 21 -5 16 -13 23 -15 26 -7 12 34 42 57 84 63 78 11 88 -2
19 -24z m-415 4 c-3 -5 -12 -10 -18 -10 -7 0 -6 4 3 10 19 12 23 12 15 0z
m445 -50 c-8 -5 -22 -10 -30 -10 -13 0 -13 1 0 10 8 5 22 10 30 10 13 0 13 -1
0 -10z m-15 -82 c14 -16 25 -34 25 -39 0 -5 -20 -9 -45 -9 -46 0 -67 18 -58
50 3 8 6 20 8 27 6 18 43 3 70 -29z m-270 0 c14 -6 25 -17 25 -24 0 -21 -50
-73 -96 -100 -24 -14 -60 -45 -80 -67 l-36 -42 4 66 c5 78 36 136 89 162 41
20 60 21 94 5z m195 -114 c0 -11 -11 -31 -24 -43 -30 -28 -50 -78 -35 -87 6
-3 11 -4 12 -3 17 32 27 45 46 58 l24 15 -7 -59 c-16 -149 -18 -215 -7 -215 6
0 11 11 11 24 0 35 22 126 31 126 3 0 12 -13 18 -29 11 -26 47 -51 73 -51 7 0
0 12 -14 28 -36 38 -66 116 -71 190 -5 60 -4 62 18 62 72 0 133 -131 122 -264
-8 -94 -23 -141 -55 -176 l-27 -30 -141 49 c-160 54 -217 89 -275 166 -48 64
-47 86 6 143 33 35 34 36 35 13 0 -13 10 -39 22 -59 12 -19 27 -51 34 -70 16
-47 40 -57 31 -13 -4 17 -5 31 -3 31 2 0 16 -18 30 -41 15 -22 30 -38 33 -36
12 13 -21 77 -62 120 -59 60 -59 85 0 148 25 26 45 52 45 57 0 4 29 -1 65 -12
53 -17 65 -25 65 -42z m-270 -356 c0 -5 -10 -8 -22 -6 -17 2 -24 11 -26 33
l-4 30 26 -24 c14 -14 26 -29 26 -33z"/>
</g>
</svg>
