<?xml version="1.0" standalone="no"?>
<!DOCTYPE svg PUBLIC "-//W3C//DTD SVG 20010904//EN"
 "http://www.w3.org/TR/2001/REC-SVG-20010904/DTD/svg10.dtd">
<svg version="1.0" xmlns="http://www.w3.org/2000/svg"
 width="512.000000pt" height="512.000000pt" viewBox="0 0 512.000000 512.000000"
 preserveAspectRatio="xMidYMid meet">
<metadata>
Created by potrace 1.16, written by Peter Selinger 2001-2019
</metadata>
<g transform="translate(0.000000,512.000000) scale(0.100000,-0.100000)"
fill="#000000" stroke="none">
<path d="M991 5025 c-321 -70 -581 -268 -721 -549 -79 -160 -102 -251 -108
-439 -5 -176 7 -301 44 -447 21 -84 22 -95 8 -103 -82 -46 -135 -141 -135
-244 0 -63 6 -86 69 -242 38 -95 81 -188 95 -206 14 -18 47 -43 72 -55 38 -18
57 -21 113 -17 37 3 76 8 87 11 18 6 27 -10 82 -146 34 -84 72 -180 83 -213
22 -63 39 -203 40 -317 l0 -67 -42 -11 c-163 -41 -397 -144 -550 -242 -110
-70 -108 -66 -52 -143 26 -36 49 -65 51 -65 1 0 35 22 75 49 163 110 360 197
547 242 107 25 131 43 131 95 l0 37 23 -34 c12 -18 38 -44 56 -56 62 -42 146
-34 533 52 186 41 340 75 342 75 2 0 6 -20 8 -45 7 -57 46 -117 100 -152 41
-27 45 -28 213 -31 153 -3 177 -1 225 17 l53 20 211 -60 c206 -59 214 -60 311
-57 85 4 108 8 153 31 66 35 121 83 149 134 l22 39 -74 37 -75 37 -41 -45
c-41 -45 -91 -69 -131 -63 -17 2 -2 17 73 70 162 116 386 216 597 268 32 8 64
30 122 84 218 200 493 345 784 413 61 14 115 29 119 33 15 13 -23 160 -40 160
-28 0 -248 -59 -338 -90 -124 -44 -342 -158 -450 -235 -103 -74 -74 -72 -317
-24 -240 47 -469 38 -650 -27 -83 -30 -185 -80 -240 -117 l-36 -25 -56 84
c-37 56 -61 82 -69 78 -37 -22 -127 -85 -127 -90 0 -3 22 -37 49 -77 74 -111
91 -149 91 -209 -1 -92 -51 -169 -134 -203 -22 -9 -81 -19 -131 -22 -146 -9
-195 8 -195 66 0 55 57 79 208 88 l102 6 0 79 0 80 -138 -4 c-138 -3 -140 -3
-213 -41 -52 -26 -87 -37 -118 -37 -24 0 -197 -34 -383 -75 -314 -70 -418 -86
-418 -67 0 4 163 72 363 151 199 79 366 148 371 152 7 6 -34 138 -49 157 -2 2
-179 -68 -395 -154 -434 -174 -442 -175 -448 -103 -4 47 7 56 164 127 228 105
483 198 741 272 l71 20 -20 73 c-11 39 -24 76 -28 81 -19 20 -498 -140 -747
-250 -67 -30 -130 -54 -140 -54 -48 0 -59 71 -19 111 34 34 276 157 418 213
64 25 188 66 275 91 87 26 163 48 170 50 9 3 6 23 -9 77 -11 40 -24 77 -28 81
-16 18 -419 -112 -587 -189 -65 -29 -74 -31 -88 -18 -20 21 -19 67 3 86 32 29
297 156 373 179 62 19 98 23 219 23 204 1 220 -5 371 -150 156 -150 174 -159
314 -159 96 0 137 6 315 47 485 111 891 161 1471 179 474 15 544 5 644 -96 62
-61 89 -125 93 -218 5 -101 -8 -136 -112 -291 -89 -133 -154 -253 -211 -391
-89 -217 -218 -437 -362 -615 -37 -47 -142 -159 -233 -250 -110 -109 -175
-183 -193 -217 -23 -43 -317 -901 -317 -924 0 -11 153 -60 161 -51 3 4 68 194
144 422 76 228 151 440 166 470 21 40 68 92 164 183 277 263 467 536 614 881
73 170 130 277 226 421 110 165 129 223 123 374 -4 99 -7 115 -41 185 -63 132
-185 236 -322 272 -63 17 -635 19 -871 3 -424 -28 -878 -95 -1253 -185 -142
-34 -292 -47 -246 -22 32 17 85 71 101 101 22 41 74 311 74 382 0 34 -5 77
-12 96 -28 83 -106 161 -189 188 l-37 12 -5 167 c-4 140 -9 182 -31 261 -108
384 -413 674 -791 752 -109 23 -328 24 -424 4z m471 -195 c277 -89 474 -291
574 -590 28 -84 29 -89 29 -315 -1 -234 -10 -332 -53 -530 -20 -90 -15 -87
-107 -54 -56 19 -74 21 -265 17 -179 -4 -213 -8 -269 -27 -69 -24 -368 -171
-413 -202 -15 -11 -40 -47 -57 -81 -17 -34 -31 -56 -31 -51 0 22 -115 156
-178 208 -36 30 -100 73 -143 95 l-78 40 -30 79 c-85 222 -115 389 -108 605 3
119 9 166 27 221 96 298 315 514 612 600 138 40 339 34 490 -15z m817 -1205
c39 -45 40 -79 6 -244 -26 -130 -35 -155 -61 -165 -22 -9 -62 -7 -68 2 -3 4 8
73 24 152 16 79 32 171 36 205 10 100 15 104 63 50z m-1901 -507 c46 -111 81
-207 78 -215 -8 -19 -60 -16 -79 5 -25 28 -127 293 -127 332 0 33 22 80 38 80
4 0 45 -91 90 -202z m341 -203 c20 -33 51 -83 68 -111 l30 -50 -34 -39 c-18
-21 -35 -36 -37 -34 -3 3 -137 325 -153 369 -12 31 89 -78 126 -135z m2749
-549 l73 -18 -129 -43 c-221 -74 -471 -215 -619 -349 -33 -31 -68 -56 -77 -56
-9 0 -42 7 -74 16 l-58 16 25 50 c18 36 26 72 29 129 l5 79 46 34 c88 65 225
125 341 151 89 20 339 15 438 -9z"/>
<path d="M1360 1143 c-1 -416 -45 -646 -177 -911 -31 -62 -54 -114 -52 -116 2
-2 34 -22 71 -44 49 -30 69 -38 76 -29 28 35 119 235 152 336 73 219 82 281
87 609 l5 292 -81 0 -81 0 0 -137z"/>
<path d="M1843 988 c5 -328 14 -390 87 -609 33 -101 124 -301 152 -336 7 -9
27 -1 76 29 37 22 69 42 71 44 2 2 -21 54 -52 116 -124 248 -164 436 -174 805
l-6 243 -80 0 -79 0 5 -292z"/>
</g>
</svg>
