<?xml version="1.0" standalone="no"?>
<!DOCTYPE svg PUBLIC "-//W3C//DTD SVG 20010904//EN"
 "http://www.w3.org/TR/2001/REC-SVG-20010904/DTD/svg10.dtd">
<svg version="1.0" xmlns="http://www.w3.org/2000/svg"
 width="100.000000pt" height="92.000000pt" viewBox="0 0 100.000000 92.000000"
 preserveAspectRatio="xMidYMid meet">
<metadata>
Created by potrace 1.16, written by Peter Selinger 2001-2019
</metadata>
<g transform="translate(0.000000,92.000000) scale(0.100000,-0.100000)"
fill="#000000" stroke="none">
<path d="M450 702 l0 -219 -68 -47 -68 -47 -43 16 c-24 8 -47 15 -51 15 -4 0
-12 -19 -19 -41 -13 -44 -6 -58 29 -59 8 0 -2 -16 -25 -40 l-39 -40 29 -30
c16 -16 34 -30 41 -30 6 0 37 27 67 60 31 33 59 60 63 60 15 0 -3 -112 -22
-137 -40 -53 -70 -67 -150 -71 -101 -6 -108 1 -101 93 7 92 31 183 72 272 34
73 106 163 132 163 15 0 52 -73 53 -105 0 -11 4 -26 9 -34 8 -12 13 -12 35 3
23 15 26 23 26 79 0 79 -31 131 -86 146 -59 16 -94 3 -154 -58 -104 -105 -180
-313 -180 -493 0 -89 0 -90 34 -124 l34 -34 108 0 c126 0 172 17 227 81 44 51
57 97 57 205 0 78 2 91 20 102 16 10 24 10 40 0 18 -11 20 -24 20 -108 0 -111
24 -176 81 -224 55 -47 89 -56 205 -56 l106 0 34 34 c34 34 34 35 34 124 0
180 -76 388 -180 493 -64 64 -107 79 -163 56 -51 -22 -77 -71 -77 -145 0 -55
3 -63 26 -78 22 -15 27 -15 35 -3 5 8 9 23 9 34 1 32 38 105 53 105 26 0 98
-90 132 -163 41 -89 65 -180 72 -272 7 -92 0 -99 -101 -93 -80 4 -110 18 -150
71 -19 25 -37 137 -22 137 4 0 32 -27 63 -60 30 -33 61 -60 67 -60 7 0 25 14
41 30 l29 30 -39 40 c-23 24 -33 40 -25 40 35 1 42 15 29 59 -7 22 -15 41 -19
41 -4 0 -27 -7 -51 -15 l-43 -16 -68 47 -68 47 0 219 0 218 -50 0 -50 0 0
-218z"/>
</g>
</svg>
