<?xml version="1.0" standalone="no"?>
<!DOCTYPE svg PUBLIC "-//W3C//DTD SVG 20010904//EN"
 "http://www.w3.org/TR/2001/REC-SVG-20010904/DTD/svg10.dtd">
<svg version="1.0" xmlns="http://www.w3.org/2000/svg"
 width="512.000000pt" height="512.000000pt" viewBox="0 0 512.000000 512.000000"
 preserveAspectRatio="xMidYMid meet">
<metadata>
Created by potrace 1.16, written by Peter Selinger 2001-2019
</metadata>
<g transform="translate(0.000000,512.000000) scale(0.100000,-0.100000)"
fill="#000000" stroke="none">
<path d="M3562 4687 l-152 -152 138 -138 c75 -75 142 -137 147 -137 6 0 78 67
160 150 l150 150 -140 140 c-77 77 -142 140 -145 140 -3 0 -74 -69 -158 -153z"/>
<path d="M2628 4073 l-526 -526 -32 26 c-41 35 -72 42 -106 25 -38 -18 -59
-57 -50 -94 10 -39 709 -740 748 -749 56 -14 117 46 104 100 -3 13 -18 38 -33
55 l-26 32 89 89 89 89 -18 28 c-61 92 -72 132 -72 252 0 109 2 119 32 183 45
95 127 178 222 225 73 36 77 37 190 37 121 0 161 -11 254 -72 l27 -18 123 123
122 122 -300 300 c-165 165 -302 300 -305 300 -3 0 -242 -237 -532 -527z"/>
<path d="M3112 3699 c-204 -79 -260 -370 -102 -529 160 -159 452 -102 529 105
47 124 19 266 -69 355 -89 88 -235 116 -358 69z m178 -249 c11 -11 20 -33 20
-50 0 -17 -9 -39 -20 -50 -11 -11 -33 -20 -50 -20 -17 0 -39 9 -50 20 -11 11
-20 33 -20 50 0 17 9 39 20 50 11 11 33 20 50 20 17 0 39 -9 50 -20z"/>
<path d="M1820 3025 l-185 -185 183 -182 182 -183 185 185 185 185 -183 183
-182 182 -185 -185z"/>
<path d="M3639 3132 c-26 -23 -33 -38 -37 -80 -4 -50 -2 -55 51 -134 145 -217
209 -427 210 -678 0 -407 -200 -773 -545 -997 -78 -50 -103 -72 -115 -100 -32
-77 17 -161 98 -170 54 -6 76 4 202 90 484 330 714 950 568 1531 -51 202 -154
413 -252 517 -43 46 -48 49 -97 49 -43 0 -57 -5 -83 -28z"/>
<path d="M1230 2035 l0 -85 403 2 402 3 0 80 0 80 -402 3 -403 2 0 -85z"/>
<path d="M960 1645 l0 -165 283 0 282 0 25 -37 c42 -62 200 -222 287 -289 44
-35 123 -89 174 -119 77 -46 101 -55 140 -55 58 0 103 33 120 89 10 32 8 45
-8 82 -16 36 -31 50 -79 76 -89 48 -164 101 -254 178 l-82 70 256 3 256 2 0
165 0 165 -700 0 -700 0 0 -165z"/>
<path d="M2592 1259 c-204 -79 -260 -370 -102 -529 124 -123 336 -123 460 0
159 160 102 452 -105 529 -74 28 -180 28 -253 0z m178 -249 c11 -11 20 -33 20
-50 0 -17 -9 -39 -20 -50 -43 -43 -120 -11 -120 50 0 38 32 70 70 70 17 0 39
-9 50 -20z"/>
<path d="M1797 345 c-65 -96 -117 -177 -117 -180 0 -3 468 -5 1040 -5 572 0
1040 2 1040 5 0 3 -52 84 -117 180 l-116 175 -807 0 -807 0 -116 -175z"/>
</g>
</svg>
