<?xml version="1.0" standalone="no"?>
<!DOCTYPE svg PUBLIC "-//W3C//DTD SVG 20010904//EN"
 "http://www.w3.org/TR/2001/REC-SVG-20010904/DTD/svg10.dtd">
<svg version="1.0" xmlns="http://www.w3.org/2000/svg"
 width="69.000000pt" height="101.000000pt" viewBox="0 0 69.000000 101.000000"
 preserveAspectRatio="xMidYMid meet">
<metadata>
Created by potrace 1.16, written by Peter Selinger 2001-2019
</metadata>
<g transform="translate(0.000000,101.000000) scale(0.100000,-0.100000)"
fill="#000000" stroke="none">
<path d="M235 996 c-17 -7 -45 -29 -62 -49 -86 -98 -62 -237 51 -308 l29 -18
-106 -50 c-136 -63 -149 -81 -145 -197 3 -69 8 -90 40 -156 21 -42 38 -86 38
-98 0 -37 31 -90 63 -106 23 -13 55 -15 146 -13 104 4 121 7 162 31 53 31 116
97 152 159 36 62 87 236 87 296 0 118 -112 184 -230 137 -57 -23 -72 -5 -23
27 113 74 110 257 -5 330 -38 24 -56 29 -106 29 -34 -1 -75 -7 -91 -14z m358
-428 c25 -13 57 -68 57 -99 0 -39 -40 -92 -78 -104 -29 -8 -32 -13 -32 -50 -1
-126 -162 -275 -298 -275 -46 0 -58 4 -83 29 -34 35 -36 60 -9 117 39 80 146
164 248 195 38 11 42 15 36 33 -41 114 55 207 159 154z"/>
<path d="M282 298 c-26 -26 -7 -115 32 -147 12 -10 21 -9 48 5 84 42 119 116
62 130 -15 4 -38 3 -53 -2 -20 -7 -30 -5 -43 8 -21 21 -30 22 -46 6z"/>
</g>
</svg>
