<?xml version="1.0" standalone="no"?>
<!DOCTYPE svg PUBLIC "-//W3C//DTD SVG 20010904//EN"
 "http://www.w3.org/TR/2001/REC-SVG-20010904/DTD/svg10.dtd">
<svg version="1.0" xmlns="http://www.w3.org/2000/svg"
 width="98.000000pt" height="95.000000pt" viewBox="0 0 98.000000 95.000000"
 preserveAspectRatio="xMidYMid meet">
<metadata>
Created by potrace 1.16, written by Peter Selinger 2001-2019
</metadata>
<g transform="translate(0.000000,95.000000) scale(0.100000,-0.100000)"
fill="#000000" stroke="none">
<path d="M351 940 c-13 -6 -37 -21 -53 -35 -16 -14 -38 -25 -49 -25 -30 0 -99
-38 -131 -73 -29 -32 -58 -110 -58 -155 0 -14 -12 -41 -27 -60 -28 -38 -40
-105 -29 -166 8 -44 50 -94 93 -112 28 -12 33 -19 33 -47 0 -55 74 -107 152
-107 l28 0 -6 -80 -7 -80 51 0 50 0 27 69 c27 72 65 132 118 188 24 26 39 33
67 33 93 0 201 60 240 133 13 24 37 52 54 61 17 9 40 29 51 44 24 33 32 130
15 172 -13 31 -73 90 -91 90 -6 0 -31 22 -57 48 -55 56 -116 78 -188 68 -38
-5 -52 -2 -78 17 -24 17 -47 22 -106 24 -41 2 -86 -2 -99 -7z m145 -79 c23
-10 49 -29 57 -42 16 -22 16 -22 56 -4 49 22 105 15 135 -15 20 -20 20 -21 3
-32 -11 -5 -28 -21 -40 -34 -27 -31 -57 -30 -87 1 -39 42 -78 29 -66 -21 8
-30 60 -64 99 -64 22 0 27 -5 27 -24 0 -32 26 -53 48 -39 11 7 17 24 17 51 0
68 50 101 108 70 23 -12 46 -37 47 -50 0 -17 -50 -7 -60 12 -6 12 -21 20 -35
20 -21 0 -25 -5 -25 -28 0 -35 34 -69 78 -78 26 -5 30 -9 21 -20 -6 -8 -25
-18 -42 -22 -24 -6 -33 -16 -40 -42 l-9 -35 -20 28 c-39 53 -138 86 -152 51
-7 -19 10 -44 30 -44 31 0 6 -35 -30 -41 -29 -6 -43 -34 -26 -54 18 -22 66
-11 103 24 l29 26 -4 -29 c-2 -23 -10 -32 -38 -42 -63 -22 -120 -17 -169 16
-24 17 -52 30 -61 30 -34 0 -40 57 -10 85 28 25 22 59 -9 63 -14 2 -33 15 -44
28 -38 49 -85 17 -54 -36 9 -15 18 -51 20 -79 l4 -51 -36 -6 c-20 -3 -53 -17
-74 -31 -67 -42 -132 -29 -162 32 -20 43 -19 53 5 93 20 33 55 53 77 45 19 -8
16 -21 -13 -49 -28 -29 -29 -67 -1 -72 11 -2 32 11 52 32 31 33 34 34 40 16 8
-24 50 -27 59 -4 17 45 -56 128 -125 139 -40 7 -41 8 -36 41 7 43 40 90 78
109 28 15 29 15 29 -10 0 -17 -8 -29 -25 -37 -32 -14 -42 -45 -22 -66 14 -14
18 -13 41 1 23 16 25 16 31 -3 7 -23 50 -28 58 -6 3 7 -2 34 -10 60 -15 44
-15 51 1 82 11 24 30 41 59 54 52 24 62 24 113 1z m-51 -515 c41 -18 43 -25
12 -54 -53 -50 -167 -68 -228 -37 -24 13 -28 19 -19 35 22 41 103 37 122 -6 9
-19 18 -24 37 -22 34 4 39 33 12 69 l-22 29 26 0 c14 0 41 -7 60 -14z"/>
<path d="M413 779 c5 -36 2 -44 -20 -64 -34 -28 -25 -50 23 -59 80 -16 114
-65 96 -139 -9 -33 -8 -45 3 -56 31 -32 65 15 65 92 0 54 -27 107 -67 132 -27
17 -32 26 -33 58 0 52 -15 77 -47 77 -24 0 -25 -2 -20 -41z"/>
</g>
</svg>
