<?xml version="1.0" standalone="no"?>
<!DOCTYPE svg PUBLIC "-//W3C//DTD SVG 20010904//EN"
 "http://www.w3.org/TR/2001/REC-SVG-20010904/DTD/svg10.dtd">
<svg version="1.0" xmlns="http://www.w3.org/2000/svg"
 width="53.000000pt" height="117.000000pt" viewBox="0 0 53.000000 117.000000"
 preserveAspectRatio="xMidYMid meet">
<metadata>
Created by potrace 1.16, written by Peter Selinger 2001-2019
</metadata>
<g transform="translate(0.000000,117.000000) scale(0.100000,-0.100000)"
fill="#000000" stroke="none">
<path d="M234 1155 c3 -9 9 -64 12 -124 9 -138 -4 -195 -57 -254 -21 -25 -43
-57 -49 -71 -16 -43 -12 -101 8 -118 27 -24 79 -48 103 -48 42 0 14 -8 -65
-19 -44 -6 -85 -16 -91 -21 -18 -15 -26 -69 -14 -91 7 -14 7 -19 -2 -17 -38 9
-79 -145 -79 -294 0 -97 0 -98 25 -98 20 0 26 7 35 43 6 23 20 74 31 112 10
39 22 100 26 135 10 95 20 49 28 -133 l7 -157 69 0 68 0 10 38 c6 20 18 82 27
137 9 55 28 132 41 170 13 39 27 81 29 95 8 37 -22 69 -76 79 -43 8 -44 9 -10
10 43 2 53 8 85 52 l26 34 -6 -55 c-5 -45 -2 -61 14 -87 36 -58 60 -42 85 53
25 96 16 204 -18 217 -22 9 -47 -16 -56 -53 -7 -29 -8 -23 -9 36 -1 39 -10
113 -21 165 -11 52 -22 126 -26 164 -10 122 -4 115 -85 115 -60 0 -70 -2 -65
-15z"/>
</g>
</svg>
