<?xml version="1.0" standalone="no"?>
<!DOCTYPE svg PUBLIC "-//W3C//DTD SVG 20010904//EN"
 "http://www.w3.org/TR/2001/REC-SVG-20010904/DTD/svg10.dtd">
<svg version="1.0" xmlns="http://www.w3.org/2000/svg"
 width="512.000000pt" height="512.000000pt" viewBox="0 0 512.000000 512.000000"
 preserveAspectRatio="xMidYMid meet">
<metadata>
Created by potrace 1.16, written by Peter Selinger 2001-2019
</metadata>
<g transform="translate(0.000000,512.000000) scale(0.100000,-0.100000)"
fill="#000000" stroke="none">
<path d="M1890 4713 c-71 -26 -106 -144 -66 -222 33 -63 61 -71 244 -71 l162
0 0 -135 0 -135 -98 0 c-64 0 -104 -4 -116 -13 -15 -11 -23 -7 -63 31 -25 25
-76 58 -112 76 -61 29 -74 31 -172 31 -101 0 -108 -1 -181 -38 -91 -44 -146
-102 -192 -197 -29 -60 -31 -73 -31 -170 0 -94 3 -111 28 -164 54 -117 137
-190 258 -227 145 -45 325 2 420 109 28 31 30 32 51 17 13 -8 42 -15 65 -15
l43 0 0 -47 -1 -48 -162 -133 c-203 -166 -237 -208 -289 -352 l-23 -65 0
-1170 0 -1170 28 -57 c33 -66 82 -111 146 -133 65 -22 877 -22 941 0 62 22
115 69 144 127 l26 52 0 1180 0 1181 -25 70 c-43 122 -92 180 -282 338 l-173
142 0 43 0 42 50 0 c41 0 56 5 75 25 23 22 25 32 25 110 l0 87 248 -4 c232 -3
250 -5 297 -26 65 -30 128 -92 157 -156 23 -51 23 -55 28 -571 5 -502 6 -522
28 -585 29 -88 76 -157 131 -191 44 -28 48 -29 186 -29 125 0 144 2 158 18 10
10 17 29 17 43 -1 56 -33 69 -173 69 -126 0 -134 3 -172 80 -42 83 -45 115
-45 606 0 276 -4 494 -10 525 -23 123 -120 249 -232 302 -78 37 -160 47 -405
47 l-213 0 0 85 c0 119 -7 125 -145 125 l-105 0 0 135 0 135 165 0 c185 0 211
7 245 63 24 39 27 125 5 168 -9 16 -30 39 -48 49 -30 19 -52 20 -427 19 -217
0 -402 -3 -410 -6z m770 -143 c0 -20 -7 -20 -360 -20 -353 0 -360 0 -360 20 0
20 7 20 360 20 353 0 360 0 360 -20z m-894 -437 c66 -22 145 -101 167 -167 47
-136 -10 -277 -137 -344 -42 -22 -64 -26 -126 -27 -116 0 -196 51 -249 157
-56 111 -36 224 54 314 80 80 183 104 291 67z m714 -263 l0 -150 -180 0 -180
0 0 150 0 150 180 0 180 0 0 -150z m-150 -305 c0 -22 -4 -25 -35 -25 -31 0
-35 3 -35 25 0 22 4 25 35 25 31 0 35 -3 35 -25z m48 -174 c62 -32 325 -258
360 -308 18 -27 41 -72 52 -101 20 -51 20 -81 20 -1205 0 -1138 0 -1152 -20
-1185 -37 -61 -46 -62 -497 -62 -387 0 -410 1 -440 20 -18 10 -40 34 -50 52
-17 31 -18 95 -18 1178 l0 1145 23 56 c12 31 36 76 52 101 30 45 302 277 363
310 43 23 109 22 155 -1z"/>
<path d="M1482 4034 c-20 -14 -22 -24 -22 -104 0 -101 10 -120 65 -120 23 0
39 7 49 21 14 21 15 20 87 -30 78 -55 93 -59 127 -35 22 15 30 66 14 90 -16
25 -257 194 -277 194 -11 0 -31 -7 -43 -16z"/>
<path d="M2168 2976 c-150 -62 -239 -206 -225 -364 12 -123 78 -223 189 -283
60 -33 68 -34 168 -34 96 0 110 2 160 29 195 101 256 345 132 525 -91 133
-275 188 -424 127z m203 -117 c92 -31 154 -118 154 -214 -1 -129 -98 -225
-225 -225 -129 0 -224 96 -224 225 0 154 149 262 295 214z"/>
<path d="M2144 2794 c-20 -19 -24 -31 -19 -52 9 -38 32 -52 87 -52 26 0 48 -3
48 -8 0 -4 -27 -28 -60 -52 -74 -56 -91 -90 -63 -128 20 -27 21 -27 161 -30
l140 -3 21 27 c26 33 26 45 0 78 -13 16 -30 26 -47 26 l-27 0 3 89 c5 122 -4
131 -128 131 -84 0 -93 -2 -116 -26z"/>
</g>
</svg>
